# xmcd
# 
# Track frame offsets:
#     150
#     11942
#     21427
#     33745
#     45503
#     57048
#     68578
#     82259
#     95866
#     107846
#     118625
#     132382
#     144226
#     155610
#     162469
# 
# Disc length: 2353
# 
# Revision: 2
# Processed by: cddbd v1.5.2PL0 Copyright (c) Steve Scherf et al.
# Submitted via: fre:ac v1.0.17
# 
DISCID=d6092f0f
DTITLE=Willie Nelson - Country Legend [CD 1)
DYEAR=2008
DGENRE=Country
TTITLE0=Night Life
TTITLE1=Building Heartaches
TTITLE2=Pages
TTITLE3=I Hope So
TTITLE4=Some Other Time
TTITLE5=Touch Me
TTITLE6=Undo The Wrong
TTITLE7=A Moment Isn't Very Long
TTITLE8=End Of Understanding
TTITLE9=Blame It On The Time
TTITLE10=No Tomorrow In Sight
TTITLE11=Happiness Lives Next Door
TTITLE12=I'm Going To Lose A Lot Of Teardrops
TTITLE13=Both Ends Of The Candle
TTITLE14=Rainy Day Blues
EXTD=
EXTT0=
EXTT1=
EXTT2=
EXTT3=
EXTT4=
EXTT5=
EXTT6=
EXTT7=
EXTT8=
EXTT9=
EXTT10=
EXTT11=
EXTT12=
EXTT13=
EXTT14=
PLAYORDER=
